# Blender v2.78 (sub 0) OBJ File: 'ramp.blend'
# www.blender.org
mtllib ramp.mtl
o Plane_Plane.002
v -0.377184 -0.297521 0.135361
v -1.857148 0.103235 -0.090938
v -0.593582 -0.689661 0.135361
v -1.593582 -0.640970 0.135361
v -0.861059 0.102479 1.048560
v -2.019521 0.503235 1.996964
v -1.005858 -0.289661 1.209375
v -1.674988 -0.240970 1.952520
v -0.506195 0.502479 2.019199
v -0.576556 0.903235 3.514710
v -0.483576 0.110339 2.234411
v -0.379047 0.159030 3.228933
v 0.452580 0.902479 2.404968
v 1.516881 1.303235 3.457948
v 0.627650 0.510339 2.532163
v 1.436667 0.559030 3.119948
v 1.380808 1.302479 1.950588
v 2.875481 1.703235 1.864240
v 1.592477 0.910339 1.905597
v 2.570625 0.959030 1.697685
v 1.664244 1.702479 0.956741
v 2.600206 2.103235 -0.211795
v 1.772443 1.310339 0.769335
v 2.272443 1.359030 -0.096690
v 1.115328 2.102479 0.081094
v 0.873216 2.503235 -1.396365
v 1.048457 1.710339 -0.124713
v 0.739440 1.759030 -1.075769
v 0.097298 2.502479 -0.096904
v -1.162672 2.903235 -0.905593
v -0.100391 2.110339 -0.184921
v -1.013937 2.159030 -0.591658
v -0.716175 2.902479 0.540535
v -2.160233 3.303236 0.935757
v -0.913864 2.510339 0.628552
v -1.827410 2.559031 1.035289
v -0.786785 3.302479 1.571594
v -1.459341 3.703235 2.909193
v -0.853656 2.910339 1.777401
v -1.162672 2.959030 2.728457
v -0.067806 3.702479 2.313981
v 0.476196 4.103235 3.708816
v 0.040393 3.310339 2.501386
v 0.540393 3.359031 3.367412
v -0.385457 -0.294709 0.130498
v -1.847884 0.106996 -0.091130
v -0.599207 -0.682770 0.130793
v -1.588250 -0.632710 0.133531
v -0.870519 0.105534 1.047471
v -2.011367 0.507294 1.992838
v -1.011234 -0.281502 1.207248
v -1.669991 -0.233073 1.948962
v -0.513334 0.505534 2.025500
v -0.574167 0.907294 3.505889
v -0.488753 0.118498 2.236983
v -0.378347 0.166927 3.222839
v 0.452486 0.905534 2.414489
v 1.511925 1.307294 3.450270
v 0.626096 0.518499 2.537732
v 1.432606 0.566927 3.115350
v 1.387820 1.305534 1.957030
v 2.866459 1.707294 1.862786
v 1.595576 0.918499 1.910477
v 2.564490 0.966927 1.697626
v 1.673723 1.705534 0.955840
v 2.593089 2.107294 -0.206064
v 1.778144 1.318498 0.770298
v 2.268294 1.366927 -0.092171
v 1.121001 2.105534 0.073447
v 0.872713 2.507294 -1.387240
v 1.052987 1.718499 -0.128305
v 0.740022 1.766927 -1.069662
v 0.095411 2.505534 -0.106237
v -1.156228 2.907294 -0.899114
v -0.100030 2.118498 -0.190691
v -1.009009 2.166927 -0.588004
v -0.724373 2.905534 0.535693
v -2.151105 3.307294 0.935304
v -0.917910 2.518498 0.624423
v -1.821397 2.566927 1.034072
v -0.795870 3.305533 1.574446
v -1.453571 3.707294 2.902107
v -0.859432 2.918499 1.777644
v -1.159554 2.966927 2.723174
v -0.074988 3.705291 2.320345
v 0.478875 4.106997 3.699946
v 0.035386 3.318660 2.503774
v 0.541754 3.365351 3.359783
vn 0.5237 -0.8210 -0.2273
vn 0.8608 0.4792 -0.1711
vn 0.5617 -0.7965 0.2238
vn 0.4495 0.4793 -0.7538
vn 0.5422 -0.7965 -0.2676
vn -0.2593 0.4792 -0.8385
vn 0.1639 -0.7965 -0.5820
vn -0.7966 0.4793 -0.3683
vn -0.3228 -0.7965 -0.5112
vn -0.8068 0.4792 0.3456
vn -0.5959 -0.7965 -0.1021
vn -0.2830 0.4793 0.8308
vn -0.4747 -0.7965 0.3745
vn 0.4280 0.4792 0.7662
vn -0.0393 -0.7965 0.6033
vn 0.8558 0.4792 0.1946
vn 0.4221 -0.7965 0.4329
vn 0.7174 0.4798 -0.5051
vn 0.6041 -0.7965 -0.0240
vn 0.7354 0.6094 -0.2962
vn 0.8303 -0.4105 -0.3770
vn -0.6966 0.1846 -0.6933
vn -0.4899 -0.7882 0.3725
vn -0.9122 0.2921 0.2873
vn -0.0510 -0.7882 0.6133
vn -0.3968 0.2921 0.8701
vn 0.4216 -0.7882 0.4483
vn 0.3811 0.2921 0.8772
vn 0.6153 -0.7882 -0.0134
vn 0.9069 0.2921 0.3037
vn 0.4017 -0.7882 -0.4662
vn 0.8325 0.2921 -0.4707
vn -0.0776 -0.7882 -0.6105
vn 0.2073 0.2921 -0.9337
vn -0.5056 -0.7882 -0.3508
vn -0.5551 0.2921 -0.7787
vn -0.5990 -0.7882 0.1410
vn -0.9502 0.2921 -0.1085
vn -0.2960 -0.7882 0.5395
vn -0.7163 0.2922 0.6336
vn 0.5658 -0.6722 0.4774
vn 0.2812 0.3516 0.8929
vn -0.4477 -0.7890 -0.4208
vn -0.0688 -0.0136 -0.9975
vn -0.5480 0.7707 -0.3249
vn 0.0591 0.5332 -0.8439
vn -0.5647 0.7947 -0.2222
vn -0.6086 0.7703 0.1900
vn -0.5435 0.7946 0.2706
vn -0.2660 0.7703 0.5795
vn -0.1626 0.7946 0.5850
vn 0.2526 0.7703 0.5854
vn 0.3259 0.7946 0.5122
vn 0.6041 0.7703 0.2040
vn 0.5987 0.7946 0.1005
vn 0.5558 0.7703 -0.3124
vn 0.4754 0.7946 -0.3777
vn 0.1397 0.7703 -0.6221
vn 0.0374 0.7946 -0.6060
vn -0.3688 0.7703 -0.5201
vn -0.4253 0.7946 -0.4333
vn -0.6330 0.7705 -0.0742
vn -0.6068 0.7944 0.0260
vn -0.1006 0.8705 0.4817
vn 0.3740 0.5984 -0.7085
vn 0.4899 0.7883 -0.3722
vn 0.3225 0.2057 -0.9239
vn 0.0740 0.9615 -0.2644
vn 0.0511 0.7882 -0.6132
vn -0.1469 0.9615 -0.2320
vn -0.4215 0.7882 -0.4483
vn -0.2707 0.9615 -0.0460
vn -0.6152 0.7882 0.0133
vn -0.2153 0.9615 0.1704
vn -0.4018 0.7882 0.4660
vn -0.0175 0.9615 0.2741
vn 0.0775 0.7882 0.6104
vn 0.1920 0.9615 0.1964
vn 0.5055 0.7882 0.3508
vn 0.2744 0.9615 -0.0113
vn 0.5990 0.7882 -0.1409
vn 0.1752 0.9615 -0.2114
vn 0.2959 0.7882 -0.5396
vn -0.0400 0.9616 -0.2714
vn 0.8730 0.0264 -0.4870
vn 0.2829 0.9241 0.2567
vn 0.9656 0.1358 -0.2218
vn 0.5924 0.7998 -0.0969
usemtl None
s 1
f 3//1 5//2 7//3
f 7//3 9//4 11//5
f 11//5 13//6 15//7
f 15//7 17//8 19//9
f 19//9 21//10 23//11
f 23//11 25//12 27//13
f 27//13 29//14 31//15
f 31//15 33//16 35//17
f 35//17 37//18 39//19
f 39//19 41//20 43//21
f 2//22 8//23 6//24
f 6//24 12//25 10//26
f 10//26 16//27 14//28
f 14//28 20//29 18//30
f 18//30 24//31 22//32
f 22//32 28//33 26//34
f 26//34 32//35 30//36
f 30//36 36//37 34//38
f 34//38 40//39 38//40
f 38//40 44//41 42//42
f 4//43 7//3 8//23
f 8//23 11//5 12//25
f 12//25 15//7 16//27
f 16//27 19//9 20//29
f 20//29 23//11 24//31
f 24//31 27//13 28//33
f 28//33 31//15 32//35
f 32//35 35//17 36//37
f 36//37 39//19 40//39
f 40//39 43//21 44//41
f 47//44 49//45 45//46
f 51//47 53//48 49//45
f 55//49 57//50 53//48
f 59//51 61//52 57//50
f 63//53 65//54 61//52
f 67//55 69//56 65//54
f 71//57 73//58 69//56
f 75//59 77//60 73//58
f 79//61 81//62 77//60
f 83//63 85//64 81//62
f 46//65 52//66 48//67
f 50//68 56//69 52//66
f 54//70 60//71 56//69
f 58//72 64//73 60//71
f 62//74 68//75 64//73
f 66//76 72//77 68//75
f 70//78 76//79 72//77
f 74//80 80//81 76//79
f 78//82 84//83 80//81
f 82//84 88//85 84//83
f 48//67 51//47 47//44
f 52//66 55//49 51//47
f 56//69 59//51 55//49
f 60//71 63//53 59//51
f 64//73 67//55 63//53
f 68//75 71//57 67//55
f 72//77 75//59 71//57
f 76//79 79//61 75//59
f 80//81 83//63 79//61
f 84//83 87//86 83//63
f 1//87 47//44 45//46
f 2//22 48//67 4//43
f 4//43 47//44 3//1
f 5//2 45//46 49//45
f 2//22 50//68 46//65
f 9//4 49//45 53//48
f 6//24 54//70 50//68
f 13//6 53//48 57//50
f 10//26 58//72 54//70
f 17//8 57//50 61//52
f 14//28 62//74 58//72
f 21//10 61//52 65//54
f 18//30 66//76 62//74
f 25//12 65//54 69//56
f 22//32 70//78 66//76
f 29//14 69//56 73//58
f 26//34 74//80 70//78
f 33//16 73//58 77//60
f 30//36 78//82 74//80
f 37//18 77//60 81//62
f 34//38 82//84 78//82
f 37//18 85//64 41//20
f 42//42 82//84 38//40
f 41//20 87//86 43//21
f 42//42 88//85 86//88
f 43//21 88//85 44//41
f 3//1 1//87 5//2
f 7//3 5//2 9//4
f 11//5 9//4 13//6
f 15//7 13//6 17//8
f 19//9 17//8 21//10
f 23//11 21//10 25//12
f 27//13 25//12 29//14
f 31//15 29//14 33//16
f 35//17 33//16 37//18
f 39//19 37//18 41//20
f 2//22 4//43 8//23
f 6//24 8//23 12//25
f 10//26 12//25 16//27
f 14//28 16//27 20//29
f 18//30 20//29 24//31
f 22//32 24//31 28//33
f 26//34 28//33 32//35
f 30//36 32//35 36//37
f 34//38 36//37 40//39
f 38//40 40//39 44//41
f 4//43 3//1 7//3
f 8//23 7//3 11//5
f 12//25 11//5 15//7
f 16//27 15//7 19//9
f 20//29 19//9 23//11
f 24//31 23//11 27//13
f 28//33 27//13 31//15
f 32//35 31//15 35//17
f 36//37 35//17 39//19
f 40//39 39//19 43//21
f 47//44 51//47 49//45
f 51//47 55//49 53//48
f 55//49 59//51 57//50
f 59//51 63//53 61//52
f 63//53 67//55 65//54
f 67//55 71//57 69//56
f 71//57 75//59 73//58
f 75//59 79//61 77//60
f 79//61 83//63 81//62
f 83//63 87//86 85//64
f 46//65 50//68 52//66
f 50//68 54//70 56//69
f 54//70 58//72 60//71
f 58//72 62//74 64//73
f 62//74 66//76 68//75
f 66//76 70//78 72//77
f 70//78 74//80 76//79
f 74//80 78//82 80//81
f 78//82 82//84 84//83
f 82//84 86//88 88//85
f 48//67 52//66 51//47
f 52//66 56//69 55//49
f 56//69 60//71 59//51
f 60//71 64//73 63//53
f 64//73 68//75 67//55
f 68//75 72//77 71//57
f 72//77 76//79 75//59
f 76//79 80//81 79//61
f 80//81 84//83 83//63
f 84//83 88//85 87//86
f 1//87 3//1 47//44
f 2//22 46//65 48//67
f 4//43 48//67 47//44
f 5//2 1//87 45//46
f 2//22 6//24 50//68
f 9//4 5//2 49//45
f 6//24 10//26 54//70
f 13//6 9//4 53//48
f 10//26 14//28 58//72
f 17//8 13//6 57//50
f 14//28 18//30 62//74
f 21//10 17//8 61//52
f 18//30 22//32 66//76
f 25//12 21//10 65//54
f 22//32 26//34 70//78
f 29//14 25//12 69//56
f 26//34 30//36 74//80
f 33//16 29//14 73//58
f 30//36 34//38 78//82
f 37//18 33//16 77//60
f 34//38 38//40 82//84
f 37//18 81//62 85//64
f 42//42 86//88 82//84
f 41//20 85//64 87//86
f 42//42 44//41 88//85
f 43//21 87//86 88//85
